<svg width="28" height="33" xmlns="http://www.w3.org/2000/svg"><g fill="none" fill-rule="evenodd"><g fill-rule="nonzero"><path d="M4.3 17.9c-.3-1-.4-2.1-.4-3.1 0-1.2.1-2.7.4-3.8 7.3-3.1 14.6-3.5 21.8-.4.3 1.1.6 2.9.6 4.2 0 .9-.1 1.8-.3 2.6-6.1 13-14.4 12.5-22.1.5z" fill="#FDE2E1"/><path d="M4.3 17.8c1.2 1.5 2.5 1.7 3.2 3.8 2 6 15.1 4.5 15.8.2.3-2.3 2.4-2.7 3.1-4.4.6 3.9-5.8 15.3-11 15.3-5.1 0-11.1-10.7-11.1-14.9z" fill="#BAD7DF"/><path d="M18.6 20.8c-.6-.5-1.2-.9-2-.9-.3 0-.5.1-.8.2-.2.1-.3.2-.4.3-.1-.1-.3-.2-.4-.3-.2-.1-.5-.2-.8-.2-.8 0-1.5.5-2.2.9-.2.1-.4.3-.6.4-.6.3-1.8-.4-1.8-.4s-.2.9-.1 1.3.3.8.7 1.1c.4.3.8.4 1.2.5.7.1 1.3 0 1.9-.1.5-.1.9-.3 1.4-.5.3-.1.5-.3.7-.6.2.2.5.4.7.5.4.2.9.4 1.4.5.6.2 1.3.2 1.9.1.4 0 .8-.2 1.2-.5.4-.3.6-.7.7-1.1.1-.4 0-1.4 0-1.4s-2 .8-2.7.2z" fill="#9DD6C9"/><path d="M26.4 10.9c-8.1-4.5-22 .1-22 .1-1.8.2-4.8-9-1.8-9.5 6.9 2.4 18.7 1.7 21.3 2.8 5.5 2.1 3.5 7.1 2.5 6.6z" fill="#BAD7DF"/></g><g stroke="#201009" stroke-linecap="round" stroke-linejoin="round" stroke-width=".5"><path d="M7.9 13.9H12m6 0c1.4-1.5 2.7-1.5 4.1 0M3.9 17c1.2 1.5 2.5 1.7 3.2 3.8 2 6 15.1 4.5 15.8.2.3-2.3 2.4-2.7 3.1-4.4.6 3.9-5.8 15.3-11 15.3C9.9 31.9 3.9 21.3 3.9 17zm14.5 10.9c-.7 1-1.6 1.9-2.5 2.5m4.2-5.5c-.2.5-.5 1-.8 1.6m-8.4 1.1c-.7-.9-1.3-1.9-1.7-2.9m4.1 5.4c-.5-.4-.9-.8-1.3-1.2"/><path d="M18.2 20c-.6-.5-1.2-.9-2-.9-.3 0-.5.1-.8.2-.2.1-.3.2-.4.3-.1-.1-.3-.2-.4-.3-.2-.1-.5-.2-.8-.2-.8 0-1.5.5-2.2.9-.2.1-.4.3-.6.4-.6.3-1.8-.4-1.8-.4s-.2.9-.1 1.3.3.8.7 1.1c.4.3.8.4 1.2.5.7.1 1.3 0 1.9-.1.5-.1.9-.3 1.4-.5.3-.1.5-.3.7-.6.2.2.5.4.7.5.4.2.9.4 1.4.5.6.2 1.3.2 1.9.1.4 0 .8-.2 1.2-.5.4-.3.6-.7.7-1.1.1-.4 0-1.4 0-1.4s-2 .8-2.7.2zm7.6-9.5c.3 1.1.5 2.3.5 3.5 0 .9-.1 1.8-.3 2.6m-22 .6c-.3-1-.4-2.1-.4-3.1 0-1.2.2-2.4.5-3.5"/><path d="M26 10.1c-8.1-4.5-22 .1-22 .1-1.6 1-5.4-5-1.8-9.5 6.9 2.9 18.7 1.7 21.3 2.8C29 5.6 27 10.7 26 10.1z"/><path d="M21.1 5.9c.8 0 1.4.1 1.7.3 1 .4 1.8.8 2.3 1.4m-21-2.9C8 6.1 13 6 16.9 6"/></g></g></svg>