<svg data-name="Layer 1" xmlns="http://www.w3.org/2000/svg" xmlns:xlink="http://www.w3.org/1999/xlink" viewBox="0 0 48 48"><defs><linearGradient id="a" x1="23.89" y1="40.92" x2="23.89" y2="-7.17" gradientUnits="userSpaceOnUse"><stop offset="0" stop-color="#f3c57a"/><stop offset=".49" stop-color="#f39369"/><stop offset="1" stop-color="#e94867"/></linearGradient><linearGradient id="c" x1="23.89" y1="50.86" x2="23.89" y2="-3.65" xlink:href="#a"/><linearGradient id="d" x1="23.89" y1="25.79" x2="23.89" y2="7.38" xlink:href="#a"/><linearGradient id="e" x1="23.89" y1="29.18" x2="23.89" y2="17.14" xlink:href="#a"/><linearGradient id="f" x1="23.89" y1="39" x2="23.89" y2="15.72" xlink:href="#a"/><linearGradient id="b" x1="23.89" y1="63.89" x2="23.89" y2="18.83" gradientUnits="userSpaceOnUse"><stop offset="0" stop-color="#273a9b"/><stop offset=".56" stop-color="#202f65"/><stop offset="1" stop-color="#021e2f"/></linearGradient><linearGradient id="g" x1="41.88" y1="27.83" x2="41.88" y2="24.85" gradientUnits="userSpaceOnUse"><stop offset="0" stop-color="#fff"/><stop offset=".52" stop-color="#cce2e6"/><stop offset="1" stop-color="#8fa1bb"/></linearGradient><linearGradient id="h" x1="-.96" y1="50.35" x2="24.98" y2="22.09" xlink:href="#b"/><linearGradient id="i" x1="28.39" y1="20" x2="28.39" y2="12.24" xlink:href="#b"/><linearGradient id="j" x1="23.89" y1="23.56" x2="23.89" y2="11.74" xlink:href="#a"/><linearGradient id="k" x1="23.89" y1="12.49" x2="23.89" y2="5.18" xlink:href="#a"/><linearGradient id="l" x1="19.39" y1="20" x2="19.39" y2="12.24" xlink:href="#b"/><linearGradient id="m" x1="20.27" y1="17.37" x2="21.5" y2="18.6" xlink:href="#b"/><linearGradient id="n" x1="29.27" y1="17.37" x2="30.5" y2="18.6" xlink:href="#b"/><linearGradient id="o" x1="17.62" y1="24.37" x2="17.62" y2="7.66" gradientTransform="rotate(67.76 17.62 18.452)" xlink:href="#a"/><linearGradient id="p" x1="30.17" y1="24.37" x2="30.17" y2="7.66" gradientTransform="rotate(22.24 30.18 18.454)" xlink:href="#a"/><linearGradient id="q" x1="23.89" y1="0" x2="23.89" y2="24.66" xlink:href="#b"/><linearGradient id="r" x1="23.89" y1="11.27" x2="23.89" y2="2.94" xlink:href="#b"/></defs><path d="M9.13 33c0-14.91 6.61-27 14.77-27s14.76 12.09 14.76 27" fill="url(#a)"/><path d="M9.13 35.36c0-14.91 6.61-27 14.77-27s14.77 12.09 14.77 27" fill="url(#c)"/><path d="M23.89 13.73c1.46 0 2.65-3.76 2.65-6.23a4.82 4.82 0 00-.12-1.1 8.14 8.14 0 00-5.06 0 4.83 4.83 0 00-.12 1.1c0 2.5 1.19 6.23 2.65 6.23z" fill="url(#d)"/><path d="M21.06 20.33l1.17-.55a3.92 3.92 0 013.35 0l1.17.55a.34.34 0 01.09.54l-1.69 1.69a1.76 1.76 0 01-2.48 0L21 20.87a.34.34 0 01.06-.54z" fill="url(#e)"/><path d="M38 25.15l-1.4 1.4-1 1a1.54 1.54 0 01-2.17 0l-1-1-2.1-2.1a1.54 1.54 0 00-2.17 0L26 26.55l-1 1a1.54 1.54 0 01-2.17 0l-1-1-2.1-2.1a1.54 1.54 0 00-2.17 0l-2.1 2.1-1 1a1.54 1.54 0 01-2.17 0l-1-1-1.4-1.4A48 48 0 009.13 33h29.53a48 48 0 00-.66-7.85z" fill="url(#f)"/><path d="M40.89 27.56a1.54 1.54 0 00-2.17 0l-2.1 2.1-1 1a1.54 1.54 0 01-2.17 0l-1-1-2.1-2.1a1.54 1.54 0 00-2.17 0L26 29.65l-1 1a1.54 1.54 0 01-2.17 0l-1-1-2.1-2.1a1.54 1.54 0 00-2.17 0l-2.1 2.1-1 1a1.54 1.54 0 01-2.17 0l-1-1-2.1-2.1a1.54 1.54 0 00-2.17 0 2.74 2.74 0 00-.76 2.33C7.52 39.46 14.94 45 23.89 45s16.38-5.54 17.76-15.12a2.74 2.74 0 00-.76-2.33z" fill="url(#b)"/><path d="M41.86 25.4v1.18c.03-.39.02-.79 0-1.18z" fill="url(#g)"/><path d="M6.13 29.71c0 .14 0 .29.05.43s.1.55.15.82.13.64.2.95c.06.26.14.51.21.76s.18.6.28.89H7c.09.25.18.49.28.74s.23.56.35.83.22.46.34.69.27.52.42.77.26.43.4.64.28.41.42.62l.21.28.31.41.33.39a16.17 16.17 0 001.13 1.2l.19.19.17.16c.21.19.43.38.65.55l.27.21c.28.22.56.43.86.63h.07A17.39 17.39 0 0017.85 44c-4.49-3-7.44-8.25-7.48-15.19l-1.3-1.25a1.54 1.54 0 00-2.17 0 2.72 2.72 0 00-.77 2.15z" fill="url(#h)"/><circle cx="28.39" cy="16.5" r="1.5" fill="url(#i)"/><path d="M26.73 20.93l-1.17.55a3.92 3.92 0 01-3.35 0l-1.17-.55a.34.34 0 01-.09-.54l2-2a1.35 1.35 0 011.9 0l2 2a.34.34 0 01-.12.54z" fill="url(#j)"/><path d="M21.06 20.93l.29.14 1.6-1.6a1.35 1.35 0 011.9 0l1.6 1.6.29-.14a.34.34 0 00.09-.54l-2-2a1.35 1.35 0 00-1.9 0l-2 2a.34.34 0 00.13.54z" fill="url(#k)"/><circle cx="19.39" cy="16.5" r="1.5" fill="url(#l)"/><path d="M19.39 15a1.5 1.5 0 00-1.5 1.5h1.5z" fill="url(#m)"/><path d="M28.39 15a1.5 1.5 0 00-1.5 1.5h1.5z" fill="url(#n)"/><ellipse cx="17.62" cy="18.45" rx=".95" ry="2" transform="rotate(-67.76 17.621 18.455)" fill="url(#o)"/><ellipse cx="30.17" cy="18.45" rx="2" ry=".95" transform="rotate(-22.24 30.165 18.453)" fill="url(#p)"/><path d="M26.54 5.71c0 2.47-1.19 6.23-2.65 6.23s-2.65-3.76-2.65-6.23S22.43 3 23.89 3s2.65.24 2.65 2.71z" fill="url(#q)"/><path d="M26.51 6.43a8.15 8.15 0 00-5.23 0c.19 2.42 1.29 5.51 2.62 5.51s2.42-3.09 2.61-5.51z" fill="url(#r)"/></svg>